<?xml version="1.0" encoding="UTF-8"?>
<!-- Generator: visioncortex VTracer 0.6.2 -->
<svg version="1.1" xmlns="http://www.w3.org/2000/svg" viewBox="0 0 24 24" width="24" height="24">
<path d="M0 0 C7.84484503 -0.18761961 19.34338097 -0.44745014 26.48828125 3.125 C28.02775325 3.2577131 29.57025451 3.35592004 31.11328125 3.4375 C36.65226398 3.89246208 41.85549363 5.12073643 47.20678711 6.5378418 C53.44200283 8.17099748 59.71121235 9.32891788 66.0625 10.4140625 C69.11757555 11.04806906 71.6145462 11.95923955 74.48828125 13.125 C78.04997107 13.94096559 81.62562045 14.63969628 85.2109375 15.34375 C88.02156207 16.01374394 89.96549292 16.81479425 92.48828125 18.125 C94.35183723 18.64690497 96.22872009 19.12243757 98.11328125 19.5625 C112.18032995 22.98098085 112.18032995 22.98098085 118.80078125 26.0625 C122.39906284 27.73494074 125.99513939 28.93892955 129.80078125 30.0625 C136.24756171 31.98154162 142.32057695 34.45964162 148.48828125 37.125 C150.48791173 37.93840901 152.48791296 38.75090714 154.48828125 39.5625 C159.66154103 41.7101457 164.62376008 44.17069127 169.609375 46.71875 C172.26497689 48.01592324 174.91763065 49.13027999 177.67578125 50.1875 C181.74082131 51.75646283 185.43460329 53.66804103 189.20703125 55.83984375 C191.59797818 57.18679844 194.02636554 58.41303841 196.48828125 59.625 C203.84071992 63.26718027 210.88163339 67.34446357 217.89453125 71.59765625 C220.51552524 73.14104277 223.17615188 74.57535814 225.86328125 76 C230.97067425 78.75511482 235.74729774 81.8780969 240.54296875 85.140625 C243.19895898 86.930072 245.8891164 88.62968257 248.61328125 90.3125 C256.12281932 95.0524854 263.24420128 100.36269575 270.40039062 105.61425781 C271.7847204 106.61592206 273.18195296 107.60000732 274.59179688 108.56542969 C276.25582319 109.70683467 277.8770615 110.91019146 279.48828125 112.125 C279.48828125 112.785 279.48828125 113.445 279.48828125 114.125 C280.47828125 114.125 281.46828125 114.125 282.48828125 114.125 C282.48828125 114.785 282.48828125 115.445 282.48828125 116.125 C283.29265625 116.49625 283.29265625 116.49625 284.11328125 116.875 C287.07067945 118.43152537 289.78552176 120.15935673 292.48828125 122.125 C292.48828125 122.785 292.48828125 123.445 292.48828125 124.125 C293.060625 124.393125 293.63296875 124.66125 294.22265625 124.9375 C296.56712759 126.16632636 298.61233063 127.55022176 300.73828125 129.125 C301.79789063 129.8984375 301.79789063 129.8984375 302.87890625 130.6875 C303.41 131.161875 303.94109375 131.63625 304.48828125 132.125 C304.48828125 132.785 304.48828125 133.445 304.48828125 134.125 C305.35453125 134.5271875 305.35453125 134.5271875 306.23828125 134.9375 C308.54378168 136.15429189 310.50884317 137.42833879 312.48828125 139.125 C312.48828125 139.785 312.48828125 140.445 312.48828125 141.125 C313.32359375 141.49625 313.32359375 141.49625 314.17578125 141.875 C316.91239038 143.35424818 319.16478994 145.05967439 321.48828125 147.125 C321.48828125 147.785 321.48828125 148.445 321.48828125 149.125 C322.38531013 149.53454422 322.38531013 149.53454422 323.30046082 149.95236206 C325.42618001 151.09171469 326.80123134 152.19006015 328.4934082 153.88720703 C329.05111404 154.44183624 329.60881989 154.99646545 330.1834259 155.56790161 C331.07102852 156.4662825 331.07102852 156.4662825 331.9765625 157.3828125 C332.5979863 158.00469452 333.2194101 158.62657654 333.85966492 159.26730347 C335.17403541 160.58469214 336.4859775 161.90450751 337.7956543 163.2265625 C339.77805029 165.22706146 341.76817643 167.21959513 343.75976562 169.2109375 C360.91804934 186.41430426 360.91804934 186.41430426 362.48828125 191.125 C363.14828125 191.125 363.80828125 191.125 364.48828125 191.125 C367.48828125 194.58653846 367.48828125 194.58653846 367.48828125 197.125 C368.14828125 197.125 368.80828125 197.125 369.48828125 197.125 C371.43359375 199.2421875 371.43359375 199.2421875 373.61328125 202 C374.33773438 202.90492188 375.0621875 203.80984375 375.80859375 204.7421875 C377.48828125 207.125 377.48828125 207.125 377.48828125 209.125 C378.14828125 209.125 378.80828125 209.125 379.48828125 209.125 C381.1953125 211.1171875 381.1953125 211.1171875 383.30078125 214 C383.88303467 214.79325684 383.88303467 214.79325684 384.47705078 215.60253906 C385.82089374 217.43851558 387.15433984 219.281819 388.48828125 221.125 C389.52055538 222.53926542 390.55311886 223.95331968 391.5859375 225.3671875 C401.99913045 239.66398287 412.05592186 254.16153281 421.48828125 269.125 C422.18953125 270.22714844 422.89078125 271.32929688 423.61328125 272.46484375 C427.47491046 278.61565846 430.96093873 284.80394332 434.06640625 291.37109375 C435.45349165 294.19647686 435.45349165 294.19647686 437.38671875 296.8984375 C439.97481291 300.87197984 441.8923684 305.00840865 443.86328125 309.3125 C446.36374886 314.69618607 448.88647852 320.01146106 451.80078125 325.1875 C454.04187716 329.1846327 455.80062863 333.19384186 457.4296875 337.47265625 C458.64650875 340.52144456 460.02517021 343.46877482 461.42578125 346.4375 C465.92206226 356.09827506 469.4890874 365.89637961 472.53125 376.1015625 C473.35725491 378.71106372 474.29119331 381.17272582 475.36328125 383.6875 C478.45790908 391.15603093 480.54084401 398.99544537 482.79638672 406.74804688 C483.38684227 408.77651379 483.98553832 410.802579 484.5859375 412.828125 C487.29815757 422.09579198 489.62406246 431.45579177 491.92089844 440.83325195 C492.29369008 442.33901579 492.67432115 443.84286449 493.06347656 445.34448242 C493.95596805 448.79745962 494.71821585 452.1293884 494.98828125 455.6875 C495.37577274 459.68478062 496.37449073 463.25949173 497.48828125 467.125 C498.82723193 473.8682661 499.65579868 480.58688159 500.2109375 487.43359375 C500.48381267 490.08163592 500.91750782 492.63771097 501.42578125 495.25 C504.13380346 509.51269064 504.92317218 523.87103906 505.49365234 538.34667969 C505.61368038 541.38510374 505.74357371 544.42298714 505.875 547.4609375 C506.59518699 564.49460788 506.43724226 581.34696086 505.67578125 598.375 C505.63292999 599.34500946 505.59007874 600.31501892 505.54592896 601.31442261 C503.84036142 639.06875948 503.84036142 639.06875948 500.48828125 649.125 C500.33364525 650.85176868 500.21354695 652.58172296 500.11328125 654.3125 C499.71682396 659.53678395 498.95754913 664.60823705 497.98828125 669.75 C497.85760254 670.44891357 497.72692383 671.14782715 497.59228516 671.86791992 C496.62399455 676.85357341 496.62399455 676.85357341 495.48828125 679.125 C495.33359375 680.9503125 495.33359375 680.9503125 495.17578125 682.8125 C494.60894446 688.54591476 492.99954323 693.9568238 491.42578125 699.4765625 C490.5135851 703.02652586 489.97021289 706.49531669 489.48828125 710.125 C488.66828409 713.2956557 487.82514161 716.33296055 486.54296875 719.34765625 C484.9832365 723.45495118 484.06929116 727.70769403 483.07617188 731.97851562 C482.08096428 736.12190979 480.83329231 740.03578536 479.28930664 744.00610352 C477.77327858 748.01634661 476.50355017 752.11195062 475.17578125 756.1875 C472.27558796 764.99152036 469.0410991 773.56499442 465.48828125 782.125 C464.79804405 783.85307587 464.11026087 785.58213551 463.42578125 787.3125 C462.78125238 788.91719122 462.13537206 790.52134016 461.48828125 792.125 C461.11058594 793.06730469 460.73289062 794.00960937 460.34375 794.98046875 C457.75607322 801.33054541 454.89371247 807.45066796 451.72265625 813.53125 C450.66064518 815.76281757 449.96613862 817.71295803 449.48828125 820.125 C448.82828125 820.125 448.16828125 820.125 447.48828125 820.125 C447.39933594 820.80433594 447.31039063 821.48367188 447.21875 822.18359375 C446.30724103 825.85400151 444.62905092 828.91218329 442.80078125 832.1875 C442.06499406 833.53178009 441.33063298 834.87684168 440.59765625 836.22265625 C440.23607422 836.88539551 439.87449219 837.54813477 439.50195312 838.23095703 C438.11218877 840.82772771 436.83172635 843.47315579 435.55078125 846.125 C430.43446488 856.45495398 424.17298005 866.19890327 417.8984375 875.85546875 C416.62725588 877.9013317 415.52248753 879.95166795 414.48828125 882.125 C413.82828125 882.125 413.16828125 882.125 412.48828125 882.125 C412.21371094 882.86363281 411.93914062 883.60226562 411.65625 884.36328125 C410.5681495 886.93614766 409.37414045 889.01496451 407.80078125 891.3125 C407.27186279 892.08722656 406.74294434 892.86195313 406.19799805 893.66015625 C405.6337915 894.47355469 405.06958496 895.28695312 404.48828125 896.125 C403.61586792 897.39150391 403.61586792 897.39150391 402.72583008 898.68359375 C398.58277401 904.6553208 394.27505863 910.45723967 389.78125 916.16796875 C386.74896614 920.07842681 383.90884644 924.11513074 381.08203125 928.17578125 C380.55609375 928.81902344 380.03015625 929.46226562 379.48828125 930.125 C378.82828125 930.125 378.16828125 930.125 377.48828125 930.125 C377.1325 930.94291016 377.1325 930.94291016 376.76953125 931.77734375 C375.15910551 934.72815433 373.14676019 937.11204217 370.98828125 939.6875 C368.67588486 942.45411711 366.48910426 945.12376548 364.48828125 948.125 C363.82828125 948.125 363.16828125 948.125 362.48828125 948.125 C362.07473389 949.0207373 362.07473389 949.0207373 361.65283203 949.93457031 C360.54606091 952.01632095 359.45825309 953.46083193 357.85546875 955.171875 C357.30826172 955.75791504 356.76105469 956.34395508 356.19726562 956.94775391 C355.59205078 957.58374512 354.98683594 958.21973633 354.36328125 958.875 C353.72455078 959.55095215 353.08582031 960.2269043 352.42773438 960.92333984 C346.04500641 967.62757477 339.52379298 974.19526397 332.98828125 980.75 C332.47054138 981.2704187 331.95280151 981.7908374 331.41937256 982.32702637 C320.03419796 993.75684517 320.03419796 993.75684517 314.48828125 998.125 C313.82828125 998.125 313.16828125 998.125 312.48828125 998.125 C312.48828125 998.785 312.48828125 999.445 312.48828125 1000.125 C307.01209077 1005.125 307.01209077 1005.125 304.48828125 1005.125 C304.48828125 1005.785 304.48828125 1006.445 304.48828125 1007.125 C302.37109375 1009.0703125 302.37109375 1009.0703125 299.61328125 1011.25 C298.70835937 1011.97445312 297.8034375 1012.69890625 296.87109375 1013.4453125 C294.48828125 1015.125 294.48828125 1015.125 292.48828125 1015.125 C292.48828125 1015.785 292.48828125 1016.445 292.48828125 1017.125 C289.02674279 1020.125 289.02674279 1020.125 286.48828125 1020.125 C286.48828125 1020.785 286.48828125 1021.445 286.48828125 1022.125 C285.16828125 1022.455 283.84828125 1022.785 282.48828125 1023.125 C282.48828125 1023.785 282.48828125 1024.445 282.48828125 1025.125 C280.75279956 1026.57026736 278.94852162 1027.9337222 277.11328125 1029.25 C276.11554688 1029.97445313 275.1178125 1030.69890625 274.08984375 1031.4453125 C271.48828125 1033.125 271.48828125 1033.125 269.48828125 1033.125 C269.48828125 1033.785 269.48828125 1034.445 269.48828125 1035.125 C267.46875 1036.5703125 267.46875 1036.5703125 264.67578125 1038.25 C259.48700753 1041.43844439 254.6337083 1044.91912782 249.80078125 1048.62109375 C247.48828125 1050.125 247.48828125 1050.125 244.48828125 1050.125 C244.48828125 1050.785 244.48828125 1051.445 244.48828125 1052.125 C234.17979332 1059.88205155 221.53879362 1065.85698 208.48828125 1066.125 C206.72291016 1066.16560547 206.72291016 1066.16560547 204.921875 1066.20703125 C201.10630628 1066.24871075 197.30292328 1066.21274094 193.48828125 1066.125 C192.67230469 1066.10824219 191.85632813 1066.09148437 191.015625 1066.07421875 C175.95213751 1065.08875695 162.71545851 1056.72119912 152.48828125 1046.125 C151.72515625 1045.403125 150.96203125 1044.68125 150.17578125 1043.9375 C148.48828125 1042.125 148.48828125 1042.125 148.48828125 1040.125 C147.82828125 1040.125 147.16828125 1040.125 146.48828125 1040.125 C134.00130713 1024.02700246 131.5821713 1005.96663311 133.48828125 986.125 C135.71200978 971.25584575 145.03074397 955.57837668 156.92578125 946.3125 C161.3802419 943.11377302 165.97502225 940.11315101 170.55395508 937.09643555 C175.75421529 933.65823096 180.82708083 930.06468415 185.83251953 926.34863281 C188.93496771 924.08235149 191.84794827 922.37002094 195.48828125 921.125 C195.48828125 920.465 195.48828125 919.805 195.48828125 919.125 C197.22376294 917.67973264 199.02804088 916.3162778 200.86328125 915 C201.86101562 914.27554688 202.85875 913.55109375 203.88671875 912.8046875 C206.48828125 911.125 206.48828125 911.125 208.48828125 911.125 C208.48828125 910.465 208.48828125 909.805 208.48828125 909.125 C213.96447173 904.125 213.96447173 904.125 216.48828125 904.125 C216.48828125 903.465 216.48828125 902.805 216.48828125 902.125 C218.18731148 900.60759024 219.94900848 899.159872 221.73828125 897.75 C224.54141437 895.53270687 227.22529322 893.3944248 229.72265625 890.8359375 C231.48828125 889.125 231.48828125 889.125 233.48828125 889.125 C233.89046875 888.1659375 233.89046875 888.1659375 234.30078125 887.1875 C235.48828125 885.125 235.48828125 885.125 238.48828125 884.125 C238.48828125 883.465 238.48828125 882.805 238.48828125 882.125 C239.86328125 880.5 239.86328125 880.5 241.48828125 879.125 C242.14828125 879.125 242.80828125 879.125 243.48828125 879.125 C243.48828125 878.465 243.48828125 877.805 243.48828125 877.125 C244.14828125 877.125 244.80828125 877.125 245.48828125 877.125 C245.81828125 876.135 246.14828125 875.145 246.48828125 874.125 C247.14828125 874.125 247.80828125 874.125 248.48828125 874.125 C248.74480469 873.53976562 249.00132812 872.95453125 249.265625 872.3515625 C250.59390287 869.93265392 252.05352926 868.39301128 254.05078125 866.5 C256.62843514 864.07978041 256.62843514 864.07978041 258.48828125 861.125 C259.14828125 861.125 259.80828125 861.125 260.48828125 861.125 C260.75640625 860.55265625 261.02453125 859.9803125 261.30078125 859.390625 C262.52960761 857.04615366 263.91350301 855.00095062 265.48828125 852.875 C266.26171875 851.81539062 266.26171875 851.81539062 267.05078125 850.734375 C267.52515625 850.20328125 267.99953125 849.6721875 268.48828125 849.125 C269.14828125 849.125 269.80828125 849.125 270.48828125 849.125 C270.88793091 848.2602002 270.88793091 848.2602002 271.2956543 847.37792969 C272.53037664 845.04547978 273.9257264 843.13976158 275.5703125 841.078125 C276.17294922 840.315 276.77558594 839.551875 277.39648438 838.765625 C278.65385176 837.18714533 279.91165566 835.60901327 281.16992188 834.03125 C284.59841599 829.68824789 287.70763145 825.35977938 290.4519043 820.54980469 C290.79390869 820.07961914 291.13591309 819.60943359 291.48828125 819.125 C292.14828125 819.125 292.80828125 819.125 293.48828125 819.125 C293.48828125 818.135 293.48828125 817.145 293.48828125 816.125 C294.14828125 816.125 294.80828125 816.125 295.48828125 816.125 C295.73578125 815.444375 295.98328125 814.76375 296.23828125 814.0625 C297.73026033 810.55634917 299.55663636 807.40879632 301.48828125 804.125 C302.14828125 804.125 302.80828125 804.125 303.48828125 804.125 C303.61203125 803.5475 303.73578125 802.97 303.86328125 802.375 C304.49476949 800.10164233 305.37686316 798.1996471 306.48828125 796.125 C307.14828125 796.125 307.80828125 796.125 308.48828125 796.125 C308.61783203 795.34189453 308.61783203 795.34189453 308.75 794.54296875 C309.76527372 791.21781303 311.53055129 788.4035938 313.30078125 785.4375 C316.41244108 780.12406301 319.12984727 774.82454879 321.48828125 769.125 C322.14828125 769.125 322.80828125 769.125 323.48828125 769.125 C323.61783203 768.14080078 323.61783203 768.14080078 323.75 767.13671875 C324.73566458 763.11583309 326.48542428 759.64392202 328.30078125 755.9375 C331.27547591 749.74504994 334.03985256 743.54656069 336.48828125 737.125 C337.15222149 735.45724535 337.81895232 733.79059929 338.48828125 732.125 C338.81957031 731.29355469 339.15085937 730.46210937 339.4921875 729.60546875 C340.1368028 728.00025025 340.78990985 726.39840479 341.453125 724.80078125 C344.04192215 718.51073195 346.22266155 712.10722891 348.33203125 705.64453125 C349.20210931 702.99608418 350.1131464 700.37435841 351.05078125 697.75 C352.72462697 692.75683311 353.82961945 687.62139261 355.00585938 682.49365234 C355.93942579 678.42763081 356.92539269 674.39340313 358.05078125 670.375 C361.15959599 659.19249658 363.18999706 648.07971566 364.61328125 636.5625 C364.9459368 633.91493075 365.28307883 631.26799008 365.62109375 628.62109375 C365.76434082 627.46794678 365.90758789 626.3147998 366.05517578 625.12670898 C366.40321434 622.71457024 366.89700713 620.48015658 367.48828125 618.125 C369.59180679 601.43161489 369.68283202 584.54638003 369.67578125 567.75 C369.67700485 566.35548615 369.67700485 566.35548615 369.67825317 564.93280029 C369.6779875 562.25980982 369.66915594 559.5870193 369.65625 556.9140625 C369.65445236 555.71562714 369.65445236 555.71562714 369.65261841 554.49298096 C369.61709306 550.25438015 369.25872442 546.30649704 368.48828125 542.125 C368.38580624 540.64640931 368.31375548 539.16528392 368.27734375 537.68359375 C368.23770508 536.45153198 368.23770508 536.45153198 368.19726562 535.19458008 C368.16955078 534.32599365 368.14183594 533.45740723 368.11328125 532.5625 C367.80908213 524.78260744 367.10599009 517.1429981 365.98828125 509.4375 C365.79226318 508.08386353 365.79226318 508.08386353 365.59228516 506.70288086 C365.00105465 502.27490349 365.00105465 502.27490349 363.48828125 498.125 C363.21137861 495.43508868 363.04235403 492.74518496 362.8671875 490.046875 C362.45468354 486.8659166 361.51298004 484.16100347 360.48828125 481.125 C359.99569322 478.61063583 359.53978597 476.08891324 359.11328125 473.5625 C358.00172609 467.26732712 356.46583358 461.26604156 354.453125 455.1875 C353.5168085 452.21554805 352.75709028 449.22562316 352.01733398 446.19970703 C351.14629739 442.78389302 350.10442065 439.42566477 349.05078125 436.0625 C348.84646484 435.39412109 348.64214844 434.72574219 348.43164062 434.03710938 C347.04446311 429.59036277 345.35232236 425.39294111 343.48828125 421.125 C342.98587765 419.69545547 342.50290473 418.25873349 342.05078125 416.8125 C340.42269208 411.81856844 338.48281539 406.98219285 336.48828125 402.125 C336.12992188 401.22136719 335.7715625 400.31773437 335.40234375 399.38671875 C332.65488937 392.57340068 329.51778201 386.04310205 326.07910156 379.55615234 C324.27261359 376.06898847 323.48828125 374.13596531 323.48828125 370.125 C322.82828125 370.125 322.16828125 370.125 321.48828125 370.125 C321.05257813 369.23039062 320.616875 368.33578125 320.16796875 367.4140625 C316.57877698 360.10484942 312.77713739 353.05410573 308.48828125 346.125 C304.08336265 338.84425875 304.08336265 338.84425875 303.48828125 335.125 C302.82828125 335.125 302.16828125 335.125 301.48828125 335.125 C299.98046875 333.0078125 299.98046875 333.0078125 298.36328125 330.25 C297.82445312 329.34507812 297.285625 328.44015625 296.73046875 327.5078125 C295.48828125 325.125 295.48828125 325.125 295.48828125 323.125 C294.82828125 323.125 294.16828125 323.125 293.48828125 323.125 C293.48828125 322.135 293.48828125 321.145 293.48828125 320.125 C292.82828125 320.125 292.16828125 320.125 291.48828125 320.125 C290.39970259 318.56601062 289.39394457 316.94899356 288.42578125 315.3125 C285.16594763 310.00499778 281.48263343 305.33363332 277.40625 300.6328125 C275.48828125 298.125 275.48828125 298.125 274.4140625 295.3671875 C274.10855469 294.62726563 273.80304688 293.88734375 273.48828125 293.125 C272.49828125 292.795 271.50828125 292.465 270.48828125 292.125 C268.8801546 290.39273725 267.34630809 288.5904991 265.86328125 286.75 C265.06664062 285.77289063 264.27 284.79578125 263.44921875 283.7890625 C261.48828125 281.125 261.48828125 281.125 260.48828125 278.125 C259.82828125 278.125 259.16828125 278.125 258.48828125 278.125 C256.8671875 276.48046875 256.8671875 276.48046875 255.05078125 274.3125 C252.51488793 271.30036735 252.51488793 271.30036735 249.765625 268.48828125 C248.48828125 267.125 248.48828125 267.125 248.48828125 265.125 C247.84890625 264.856875 247.20953125 264.58875 246.55078125 264.3125 C244.48828125 263.125 244.48828125 263.125 243.48828125 260.125 C242.82828125 260.125 242.16828125 260.125 241.48828125 260.125 C239.86328125 258.75 239.86328125 258.75 238.48828125 257.125 C238.48828125 256.465 238.48828125 255.805 238.48828125 255.125 C237.82828125 255.125 237.16828125 255.125 236.48828125 255.125 C236.48828125 254.465 236.48828125 253.805 236.48828125 253.125 C235.49828125 252.795 234.50828125 252.465 233.48828125 252.125 C233.48828125 251.465 233.48828125 250.805 233.48828125 250.125 C232.68390625 249.7846875 232.68390625 249.7846875 231.86328125 249.4375 C226.65634869 246.55998464 222.65913919 242.29585794 218.48828125 238.125 C217.82828125 237.795 217.16828125 237.465 216.48828125 237.125 C216.48828125 236.465 216.48828125 235.805 216.48828125 235.125 C215.62203125 234.7228125 215.62203125 234.7228125 214.73828125 234.3125 C212.43278082 233.09570811 210.46771933 231.82166121 208.48828125 230.125 C208.48828125 229.465 208.48828125 228.805 208.48828125 228.125 C207.92625 227.856875 207.36421875 227.58875 206.78515625 227.3125 C204.33277479 226.0446021 202.04900442 224.63527658 199.73828125 223.125 C198.9390625 222.609375 198.13984375 222.09375 197.31640625 221.5625 C196.713125 221.088125 196.10984375 220.61375 195.48828125 220.125 C195.48828125 219.465 195.48828125 218.805 195.48828125 218.125 C194.16828125 217.795 192.84828125 217.465 191.48828125 217.125 C191.48828125 216.465 191.48828125 215.805 191.48828125 215.125 C190.76640625 214.856875 190.04453125 214.58875 189.30078125 214.3125 C186.49061742 213.12598638 184.00411568 211.85014361 181.48828125 210.125 C181.48828125 209.465 181.48828125 208.805 181.48828125 208.125 C180.71484375 207.75375 180.71484375 207.75375 179.92578125 207.375 C174.61105095 204.64949728 169.67829576 201.60306684 164.73828125 198.25 C160.02798375 195.08050877 155.25517562 192.26034759 150.23828125 189.609375 C147.43079205 188.0939689 144.71704745 186.46491953 141.98828125 184.8125 C134.48950549 180.40489708 126.62062358 176.80525259 118.73144531 173.16210938 C116.72738776 172.23554903 114.72794956 171.3000049 112.73046875 170.359375 C102.88811227 165.75231452 92.92789294 161.90274354 82.68359375 158.28515625 C80.30285639 157.4207565 77.98779065 156.52696232 75.67578125 155.5 C68.74142615 152.50870957 61.62883698 150.59044757 54.28515625 148.87109375 C51.48828125 148.125 51.48828125 148.125 49.2109375 147.18359375 C45.28800705 145.65832237 41.2660645 144.72335108 37.17578125 143.75 C35.82069458 143.42563965 35.82069458 143.42563965 34.43823242 143.09472656 C26.06300405 141.14995441 17.626729 139.7051138 9.13354492 138.38134766 C8.16392822 138.22972168 7.19431152 138.0780957 6.1953125 137.921875 C5.33397705 137.79135742 4.4726416 137.66083984 3.58520508 137.52636719 C1.48828125 137.125 1.48828125 137.125 -0.51171875 136.125 C-2.46660416 135.83030832 -4.42581883 135.56407829 -6.38671875 135.3125 C-19.26562973 133.35728579 -31.47284759 128.67224643 -41.51171875 120.125 C-41.51171875 119.465 -41.51171875 118.805 -41.51171875 118.125 C-42.99671875 117.63 -42.99671875 117.63 -44.51171875 117.125 C-44.51171875 116.465 -44.51171875 115.805 -44.51171875 115.125 C-45.17171875 115.125 -45.83171875 115.125 -46.51171875 115.125 C-46.51171875 114.465 -46.51171875 113.805 -46.51171875 113.125 C-47.17171875 113.125 -47.83171875 113.125 -48.51171875 113.125 C-59.73296024 100.31841754 -65.12487694 85.07372766 -64.88671875 68.1875 C-64.87511719 67.12990479 -64.86351562 66.07230957 -64.8515625 64.98266602 C-64.55650874 50.93181565 -60.40213645 41.10548873 -53.51171875 29.125 C-52.85171875 29.125 -52.19171875 29.125 -51.51171875 29.125 C-51.51171875 28.135 -51.51171875 27.145 -51.51171875 26.125 C-50.85171875 26.125 -50.19171875 26.125 -49.51171875 26.125 C-49.30546875 25.58875 -49.09921875 25.0525 -48.88671875 24.5 C-46.97921449 21.20521991 -44.46352491 18.53136372 -41.51171875 16.125 C-40.85171875 16.125 -40.19171875 16.125 -39.51171875 16.125 C-39.51171875 15.465 -39.51171875 14.805 -39.51171875 14.125 C-27.81075897 4.71335844 -14.79832091 0.73646387 0 0 Z " fill="#000000" transform="translate(708.51171875,67.875)"/>
<path d="M0 0 C0.77601563 0.07734375 1.55203125 0.1546875 2.3515625 0.234375 C14.22667328 1.90245076 26.23707782 9.05689383 35 17 C35.60972656 17.54140625 36.21945313 18.0828125 36.84765625 18.640625 C49.77665905 30.80241225 56.91059766 47.30768995 57.4765625 64.9609375 C57.54870374 67.76551039 57.59023211 70.5697467 57.625 73.375 C57.66177651 75.51529627 57.70253116 77.65542616 57.74765015 79.79556274 C57.78672622 81.72082949 57.81485397 83.64630947 57.84228516 85.57177734 C57.99083058 88.80068586 58.43844375 91.82177806 59 95 C59.10247501 96.47859069 59.17452577 97.95971608 59.2109375 99.44140625 C59.83601517 119.01499212 62.91879076 137.8751731 67 157 C67.16113281 157.76940918 67.32226562 158.53881836 67.48828125 159.33154297 C69.72257866 169.97851506 72.39325875 180.45065824 75.40185547 190.90429688 C75.97038959 192.89625481 76.52166564 194.89204702 77.06640625 196.890625 C78.70025066 202.81090828 80.48339055 208.50879724 82.8671875 214.16796875 C84.65490314 218.63725784 86.18423537 223.19905685 87.71826172 227.76098633 C89.20247463 232.07507837 90.95721177 236.10247342 93.04980469 240.15625 C94.32464951 242.62994684 95.47777264 245.15249762 96.625 247.6875 C97.02976563 248.57824219 97.43453125 249.46898437 97.8515625 250.38671875 C98.57739845 252.03836586 99.26975088 253.70550229 99.9140625 255.390625 C101.30649052 258.73645924 103.01842891 261.88427403 104.75 265.0625 C107.34010582 269.85560983 109.85220603 274.66904292 112.25 279.5625 C113.79967331 282.71265559 115.35968481 285.6875049 117.375 288.5625 C119 291 119 291 119 294 C119.66 294 120.32 294 121 294 C123.04169485 296.90548882 124 298.40142046 124 302 C124.66 302 125.32 302 126 302 C127.5078125 304.1171875 127.5078125 304.1171875 129.125 306.875 C129.66382813 307.77992188 130.20265625 308.68484375 130.7578125 309.6171875 C132 312 132 312 132 314 C132.66 314 133.32 314 134 314 C134 314.99 134 315.98 134 317 C134.66 317 135.32 317 136 317 C139 321.38461538 139 321.38461538 139 324 C139.66 324 140.32 324 141 324 C142.19140625 325.58203125 142.19140625 325.58203125 143.5625 327.8125 C148.11658056 334.86362473 153.55663311 341.1657975 159.0234375 347.51953125 C159.7810437 348.40366699 159.7810437 348.40366699 160.55395508 349.30566406 C161.54641491 350.4614726 162.54353679 351.61329702 163.5456543 352.76074219 C167 356.77814191 167 356.77814191 167 359 C167.66 359 168.32 359 169 359 C170.62109375 360.64453125 170.62109375 360.64453125 172.4375 362.8125 C174.97339332 365.82463265 174.97339332 365.82463265 177.72265625 368.63671875 C179 370 179 370 179 372 C179.639375 372.268125 180.27875 372.53625 180.9375 372.8125 C183 374 183 374 184 377 C184.66 377 185.32 377 186 377 C187.625 378.375 187.625 378.375 189 380 C189 380.66 189 381.32 189 382 C189.639375 382.268125 190.27875 382.53625 190.9375 382.8125 C193 384 193 384 194 387 C195.32432673 387.68438361 196.65977124 388.34730627 198 389 C199.72460079 390.47862855 201.40818146 392.00563763 203.0625 393.5625 C209.53846768 399.5657057 216.24528586 405.2521527 223.359375 410.4921875 C224.19190796 411.10598267 224.19190796 411.10598267 225.04125977 411.73217773 C226.60904626 412.88005879 228.18517931 414.01651419 229.76171875 415.15234375 C230.50035156 415.76207031 231.23898437 416.37179687 232 417 C232 417.66 232 418.32 232 419 C232.78375 419.309375 233.5675 419.61875 234.375 419.9375 C237 421 237 421 239 422 C239 422.66 239 423.32 239 424 C239.72960937 424.26425781 240.45921875 424.52851562 241.2109375 424.80078125 C244.01122 426.00482429 246.16910693 427.39280891 248.625 429.1875 C255.13194181 433.84366495 261.75942738 438.5480991 269 442 C269 442.66 269 443.32 269 444 C270.65 444.33 272.3 444.66 274 445 C274 445.66 274 446.32 274 447 C274.53367187 447.09796875 275.06734375 447.1959375 275.6171875 447.296875 C278.71938663 448.21227802 281.29647926 449.68238609 284.125 451.25 C289.01368086 453.93053512 293.93558399 456.4883402 298.9375 458.94921875 C301 460 301 460 303.5 461.5625 C306.69372632 463.39889263 310.03062641 464.63420685 313.4609375 465.96484375 C315.69735204 466.87661275 317.80102152 467.8790082 319.9375 469 C323.89710908 471.03955719 327.98850171 472.51019393 332.18359375 473.9921875 C337.22016785 475.79445673 342.30882046 477.6316892 347.08203125 480.05859375 C349.92919665 481.45608227 352.95158409 482.13628216 356 483 C357.134375 483.45375 358.26875 483.9075 359.4375 484.375 C364.36320059 486.29055023 369.49461797 487.43051263 374.62866211 488.64208984 C379.90117986 489.90117986 379.90117986 489.90117986 381 491 C384.05521411 491.65926322 387.11618933 492.23996076 390.18945312 492.80664062 C393.11712573 493.36443017 395.91187124 493.96864285 398.72265625 494.96875 C403.79437831 496.56461964 409.00464942 497.24330332 414.25 498.0625 C416.42233716 498.40463038 418.59423888 498.74954091 420.765625 499.09765625 C422.20083496 499.32207397 422.20083496 499.32207397 423.66503906 499.55102539 C426 500 426 500 428 501 C430.30932523 501.20603645 432.62286383 501.36623362 434.9375 501.5 C441.66958698 501.88986233 441.66958698 501.88986233 445 503 C447.85483365 503.29319515 450.69755681 503.54259616 453.55859375 503.75390625 C454.41695328 503.81907944 455.27531281 503.88425262 456.15968323 503.95140076 C457.98789511 504.08870122 459.81626579 504.2239007 461.64477539 504.35717773 C464.36869048 504.5574411 467.0915037 504.76948569 469.81445312 504.98242188 C488.28131623 506.37855403 506.40258966 506.21665806 524.86108398 504.77319336 C527.61968391 504.55804002 530.37901832 504.35544345 533.13867188 504.15429688 C534.90630367 504.02154604 536.67388417 503.88810998 538.44140625 503.75390625 C539.26000626 503.6934462 540.07860626 503.63298615 540.92201233 503.57069397 C544.12453621 503.31660531 546.93941978 503.02019341 550 502 C552.01931208 501.86962834 554.04067704 501.77026468 556.0625 501.6875 C561.88446311 501.31499049 567.32565818 500.39682202 573 499.0625 C594.49762949 494.02335382 615.53411138 492.23308729 635.3125 503.96484375 C642.39832489 508.62794175 648.84392958 513.22345031 654 520 C654 520.66 654 521.32 654 522 C654.66 522 655.32 522 656 522 C664.96611829 533.88470812 669.39835901 548.10156874 669.3125 562.8125 C669.30831055 563.78791748 669.30412109 564.76333496 669.29980469 565.76831055 C669.19284928 572.57078844 668.58739943 578.64810098 666 585 C665.70996094 585.75796875 665.41992188 586.5159375 665.12109375 587.296875 C657.47115769 605.86157339 644.16381809 619.07910518 625.71875 626.9765625 C610.25858925 632.79633566 593.40552013 634.48641587 577.1171875 636.53515625 C573.97703851 636.91162818 573.97703851 636.91162818 571 638 C568.5857826 638.18193265 566.16827401 638.32132801 563.75 638.4375 C558.48274312 638.71640344 553.34322035 639.19027615 548.125 640 C509.65166873 645.35907109 436.14045938 651.57022969 401 634 C399.47973223 633.73634996 397.95203716 633.51472215 396.421875 633.31640625 C395.50792969 633.19330078 394.59398437 633.07019531 393.65234375 632.94335938 C391.73331146 632.69153481 389.81404283 632.44150417 387.89453125 632.19335938 C383.02528874 631.53433847 378.64243175 630.66464338 374 629 C371.83946676 628.55261685 369.67188531 628.13854829 367.5 627.75 C357.17465317 625.79215236 347.10226309 622.86777467 337 620 C336.16452637 619.76458496 335.32905273 619.52916992 334.46826172 619.28662109 C332.16433264 618.63535847 329.86289018 617.97614329 327.5625 617.3125 C326.89557129 617.12252441 326.22864258 616.93254883 325.54150391 616.73681641 C322.41077041 615.81845726 319.4568659 614.76645832 316.45703125 613.4765625 C313.03880326 612.01657359 309.71511778 611.0109098 306.125 610.0625 C301.25010303 608.70864794 296.75892303 607.16001978 292.1953125 604.99609375 C289.73194314 603.87837278 287.23679298 602.9667364 284.6875 602.0625 C268.49122909 596.26688572 253.09466917 588.63194062 237.76269531 580.88720703 C235.36912725 579.68246654 232.96517125 578.49895841 230.5625 577.3125 C223.3722195 573.71135785 216.46701444 569.69585135 209.59375 565.52734375 C206.97275601 563.98395723 204.31212937 562.54964186 201.625 561.125 C196.39675222 558.31379422 191.51891691 555.09422254 186.62890625 551.734375 C184.45854637 550.30251796 182.35406116 549.09077065 180 548 C180 547.34 180 546.68 180 546 C179.4220166 545.89059082 178.8440332 545.78118164 178.24853516 545.66845703 C175.71975926 544.91668848 174.14113904 543.86990084 172.0234375 542.3046875 C171.27433105 541.75659424 170.52522461 541.20850098 169.75341797 540.64379883 C168.57610107 539.76824341 168.57610107 539.76824341 167.375 538.875 C165.76095551 537.68806899 164.14637547 536.50186589 162.53125 535.31640625 C161.75394531 534.74422363 160.97664062 534.17204102 160.17578125 533.58251953 C156.69725044 531.05246604 153.13628683 528.65123451 149.5546875 526.26953125 C149.04164063 525.85058594 148.52859375 525.43164062 148 525 C148 524.34 148 523.68 148 523 C147.01 523 146.02 523 145 523 C145 522.34 145 521.68 145 521 C144.46375 520.7525 143.9275 520.505 143.375 520.25 C140.4176018 518.69347463 137.70275949 516.96564327 135 515 C135 514.34 135 513.68 135 513 C134.319375 512.79375 133.63875 512.5875 132.9375 512.375 C129.08360625 510.57104973 125.92212236 508.0989655 123 505 C123 504.34 123 503.68 123 503 C122.4225 502.731875 121.845 502.46375 121.25 502.1875 C118.94449957 500.97070811 116.97943808 499.69666121 115 498 C115 497.34 115 496.68 115 496 C114.443125 495.7525 113.88625 495.505 113.3125 495.25 C110.57589087 493.77075182 108.32349131 492.06532561 106 490 C106 489.34 106 488.68 106 488 C105.40427185 487.72893433 104.8085437 487.45786865 104.19476318 487.17858887 C102.02972331 486.01596143 100.6151363 484.86848412 98.88378906 483.14257812 C98.30348938 482.56858276 97.7231897 481.9945874 97.12530518 481.40319824 C96.51161072 480.78545532 95.89791626 480.1677124 95.265625 479.53125 C94.62759949 478.89513794 93.98957397 478.25902588 93.33221436 477.6036377 C91.98838426 476.26116613 90.64706671 474.91617539 89.30810547 473.56884766 C87.25057535 471.50057835 85.18255951 469.44322672 83.11328125 467.38671875 C81.80925375 466.08137029 80.50584644 464.7754019 79.203125 463.46875 C78.58133362 462.85100708 77.95954224 462.23326416 77.31890869 461.59680176 C73 457.22993073 73 457.22993073 73 455 C72.34 455 71.68 455 71 455 C69.43567213 453.30725716 67.94671428 451.54430148 66.5 449.75 C65.7059375 448.77546875 64.911875 447.8009375 64.09375 446.796875 C62.41251966 444.55105238 61.11864101 442.5534197 60 440 C59.34 440 58.68 440 58 440 C56.0546875 437.8828125 56.0546875 437.8828125 53.875 435.125 C52.78832031 433.76761719 52.78832031 433.76761719 51.6796875 432.3828125 C50 430 50 430 50 428 C49.34 428 48.68 428 48 428 C46.40625 426.05078125 46.40625 426.05078125 44.5 423.3125 C41.53390396 419.12162462 38.48750684 415.03479663 35.3125 411 C28.79057405 402.62929881 22.91484009 393.80435266 17 385 C16.37617432 384.0716333 16.37617432 384.0716333 15.73974609 383.12451172 C14.05090623 380.60688259 12.37032855 378.08412413 10.69921875 375.5546875 C9.6143613 373.92366043 8.51420879 372.30263549 7.39453125 370.6953125 C3.9094711 365.66034129 1.16839187 360.46587603 -1.5078125 354.9609375 C-2.85804189 352.28168651 -4.30489568 349.74210216 -5.875 347.1875 C-8.47493317 342.95489111 -10.85656781 338.63427057 -13.1875 334.25 C-13.52056152 333.62375732 -13.85362305 332.99751465 -14.19677734 332.35229492 C-15.138214 330.57189573 -16.06928208 328.78602587 -17 327 C-17.57363281 325.92234375 -18.14726563 324.8446875 -18.73828125 323.734375 C-20 321 -20 321 -20 318 C-20.66 318 -21.32 318 -22 318 C-22.32871094 317.12601563 -22.32871094 317.12601563 -22.6640625 316.234375 C-24.54580046 311.36939392 -26.61090404 306.70122693 -29 302.0625 C-31.4189912 297.32176348 -33.33913113 292.58314571 -35.078125 287.55859375 C-35.90666393 285.25904714 -36.83919252 283.08670368 -37.875 280.875 C-42.79639474 270.06723116 -46.19457725 258.50415977 -49.90625 247.23828125 C-50.77422416 244.66845774 -51.69264657 242.14695345 -52.6875 239.625 C-53.93759544 236.17235544 -54.73041463 232.86363932 -55.47265625 229.28125 C-56.18153894 226.214676 -57.18861474 223.28652986 -58.2109375 220.3125 C-60.42428898 213.82584615 -62.20628466 207.37371152 -63.46484375 200.63671875 C-64.05992545 197.70474687 -64.80333072 194.83114521 -65.5625 191.9375 C-66.66532241 187.63097848 -67.36104665 183.49419029 -67.7578125 179.07421875 C-68.07859377 176.32688237 -68.75945764 173.73642331 -69.46484375 171.06640625 C-71.45715582 163.37346402 -72.51558584 155.57870539 -73.43359375 147.6953125 C-73.81299184 144.45218182 -74.25098936 141.22313646 -74.72265625 137.9921875 C-77.2899549 119.65062599 -77.9410766 101.23425732 -78.66796875 82.74609375 C-78.7021843 81.88235138 -78.73639984 81.01860901 -78.77165222 80.12869263 C-79.55644027 59.00229687 -76.53657294 42.43496899 -64 25 C-63.34 24.01 -62.68 23.02 -62 22 C-61.34 22 -60.68 22 -60 22 C-59.67 21.01 -59.34 20.02 -59 19 C-58.34 19 -57.68 19 -57 19 C-57 18.34 -57 17.68 -57 17 C-54.95302405 15.28913992 -52.9214108 13.72695616 -50.75 12.1875 C-50.11682861 11.73826172 -49.48365723 11.28902344 -48.83129883 10.82617188 C-34.2005892 0.74183131 -17.45503766 -2.35463851 0 0 Z " fill="#000000" transform="translate(144,570)"/>
<path d="M0 0 C0 0.66 0 1.32 0 2 C1.0828125 2.37125 1.0828125 2.37125 2.1875 2.75 C14.48736657 8.21660737 21.90256449 22.97447682 26.88671875 34.77734375 C29.44498097 42.18283966 30.33854816 49.12049872 30.25 56.9375 C30.24178223 57.81994385 30.23356445 58.7023877 30.22509766 59.61157227 C29.95933283 75.05308037 24.55866441 88.70676922 15 101 C14.34 101 13.68 101 13 101 C12.731875 101.639375 12.46375 102.27875 12.1875 102.9375 C11 105 11 105 8 106 C7.67 106.99 7.34 107.98 7 109 C6.34 109 5.68 109 5 109 C5 109.66 5 110.32 5 111 C-3.8274161 117.71125471 -13.64426547 121.3809433 -24 125 C-26.47944137 125.9574788 -28.94092387 126.9504765 -31.40234375 127.953125 C-33.38712395 128.75300634 -35.38110679 129.53008954 -37.37890625 130.296875 C-47.7807629 134.31136092 -58.10800253 138.80177735 -67.6484375 144.61328125 C-70 146 -70 146 -72.3671875 146.9296875 C-76.48061664 148.6019124 -80.20597077 150.97198659 -84.00390625 153.25390625 C-88.68131868 156 -88.68131868 156 -92 156 C-92 156.66 -92 157.32 -92 158 C-93.65 158.33 -95.3 158.66 -97 159 C-97 159.66 -97 160.32 -97 161 C-102.75 164 -102.75 164 -105 164 C-105 164.66 -105 165.32 -105 166 C-106.40527344 167.09741211 -106.40527344 167.09741211 -108.359375 168.27734375 C-109.06320312 168.70853516 -109.76703125 169.13972656 -110.4921875 169.58398438 C-111.23726563 170.03064453 -111.98234375 170.47730469 -112.75 170.9375 C-114.2041136 171.81998767 -115.65726785 172.70405839 -117.109375 173.58984375 C-118.13321289 174.21221924 -118.13321289 174.21221924 -119.17773438 174.84716797 C-121.1367251 176.05010766 -121.1367251 176.05010766 -123.390625 177.81640625 C-125 179 -125 179 -127 179 C-127 179.66 -127 180.32 -127 181 C-131.38461538 184 -131.38461538 184 -134 184 C-134 184.66 -134 185.32 -134 186 C-135.49325434 187.18850856 -137.04901283 188.2986053 -138.625 189.375 C-143.46405396 192.80004469 -148.01069536 196.44119438 -152.5 200.3125 C-153.09893066 200.82796387 -153.69786133 201.34342773 -154.31494141 201.87451172 C-157.53892755 204.66285256 -157.53892755 204.66285256 -160.56054688 207.66479492 C-162 209 -162 209 -164 209 C-164 209.66 -164 210.32 -164 211 C-169.47619048 216 -169.47619048 216 -172 216 C-172.268125 216.639375 -172.53625 217.27875 -172.8125 217.9375 C-174 220 -174 220 -177 221 C-177.33 221.66 -177.66 222.32 -178 223 C-178.33 223.66 -178.66 224.32 -179 225 C-179.99 225.33 -180.98 225.66 -182 226 C-182.33 226.66 -182.66 227.32 -183 228 C-183.33 228.66 -183.66 229.32 -184 230 C-184.99 230.33 -185.98 230.66 -187 231 C-187.69348365 232.31958427 -188.35673823 233.65521879 -189 235 C-190.69140625 236.8515625 -190.69140625 236.8515625 -192.5625 238.625 C-195.14015389 241.04521959 -195.14015389 241.04521959 -197 244 C-197.66 244 -198.32 244 -199 244 C-199.268125 244.57234375 -199.53625 245.1446875 -199.8125 245.734375 C-201.04132636 248.07884634 -202.42522176 250.12404938 -204 252.25 C-204.7734375 253.30960937 -204.7734375 253.30960937 -205.5625 254.390625 C-206.036875 254.92171875 -206.51125 255.4528125 -207 256 C-207.66 256 -208.32 256 -209 256 C-209.22945312 256.52851563 -209.45890625 257.05703125 -209.6953125 257.6015625 C-211.42705833 260.7850713 -213.63524739 263.54102731 -215.875 266.375 C-218.4532658 269.64947407 -220.96317145 272.8910447 -223.1953125 276.4140625 C-223.79085937 277.26742188 -224.38640625 278.12078125 -225 279 C-225.66 279 -226.32 279 -227 279 C-227.309375 279.78375 -227.61875 280.5675 -227.9375 281.375 C-229 284 -229 284 -230 286 C-230.66 286 -231.32 286 -232 286 C-232 286.99 -232 287.98 -232 289 C-232.66 289 -233.32 289 -234 289 C-234.24105469 289.68578125 -234.48210937 290.3715625 -234.73046875 291.078125 C-236.24102848 294.55473631 -238.22135545 297.60620836 -240.3125 300.75 C-243.34246792 305.379603 -246.2228901 310.01937137 -248.83984375 314.8984375 C-250.0633581 317.11476989 -251.39975908 319.233746 -252.75 321.375 C-256.63137529 327.77726852 -259.66813211 334.58514899 -262.82421875 341.36328125 C-264.58194306 345.1348576 -266.41892686 348.85684928 -268.3125 352.5625 C-270.02944044 355.95416103 -271.57342305 359.32725366 -272.9375 362.875 C-277.12945594 373.62227798 -282.28636001 384.31107219 -290 393 C-290.66 393 -291.32 393 -292 393 C-292.33 393.99 -292.66 394.98 -293 396 C-293.66 396 -294.32 396 -295 396 C-295 396.66 -295 397.32 -295 398 C-297.1380726 399.55550787 -299.2602247 400.97988812 -301.5 402.375 C-302.46848877 402.98335693 -302.46848877 402.98335693 -303.45654297 403.60400391 C-319.62988906 413.66913631 -337.75967936 417.35885172 -356.69140625 413.0859375 C-364.43454767 410.97928843 -371.46032515 407.65808419 -378 403 C-378.75539063 402.47664063 -379.51078125 401.95328125 -380.2890625 401.4140625 C-392.62237533 392.3865861 -402.12473078 379.9010352 -406 365 C-406.34546875 363.79730469 -406.6909375 362.59460938 -407.046875 361.35546875 C-411.00548009 345.2788749 -407.95195743 327.16616653 -399.95703125 312.80078125 C-398.82621546 310.67300134 -397.98609923 308.50019759 -397.125 306.25 C-395.16699676 301.21067693 -392.7664823 296.45567996 -390.26953125 291.6640625 C-389.19213094 289.4031794 -388.48062512 287.44366023 -388 285 C-387.34 285 -386.68 285 -386 285 C-385.814375 283.9171875 -385.814375 283.9171875 -385.625 282.8125 C-385.0095069 280.04278106 -384.11555626 277.6029646 -383 275 C-382.34 275 -381.68 275 -381 275 C-380.88148682 274.26265625 -380.76297363 273.5253125 -380.64086914 272.765625 C-380.00631195 270.02723877 -379.15908432 268.16126576 -377.74609375 265.75 C-377.29733887 264.97140625 -376.84858398 264.1928125 -376.38623047 263.390625 C-375.92877441 262.60171875 -375.47131836 261.8128125 -375 261 C-374.17405095 259.50238233 -373.35235462 258.00241051 -372.53515625 256.5 C-364.76777177 242.34022205 -364.76777177 242.34022205 -360.2421875 235.8203125 C-357.47147311 231.76008324 -355.12609979 227.42937456 -353 223 C-352.34 223 -351.68 223 -351 223 C-350.773125 222.319375 -350.54625 221.63875 -350.3125 220.9375 C-348.91437453 217.80836205 -347.18909099 215.36076623 -345.12109375 212.6484375 C-343.80867708 210.87939685 -343.80867708 210.87939685 -343 208 C-342.34 208 -341.68 208 -341 208 C-340.731875 207.443125 -340.46375 206.88625 -340.1875 206.3125 C-337.38246482 200.85006307 -333.88878732 196.06292555 -330.1875 191.1875 C-329.67896484 190.51396484 -329.17042969 189.84042969 -328.64648438 189.14648438 C-327.62150611 187.78894028 -326.59400769 186.43329519 -325.56396484 185.07958984 C-324.47604073 183.63298704 -323.40457075 182.17392322 -322.34619141 180.70556641 C-321.81558105 179.9738623 -321.2849707 179.2421582 -320.73828125 178.48828125 C-320.26044189 177.81966064 -319.78260254 177.15104004 -319.2902832 176.4621582 C-318.86448975 175.979646 -318.43869629 175.49713379 -318 175 C-317.34 175 -316.68 175 -316 175 C-315.62875 174.195625 -315.62875 174.195625 -315.25 173.375 C-313.69347463 170.4176018 -311.96564327 167.70275949 -310 165 C-309.34 165 -308.68 165 -308 165 C-307.731875 164.4225 -307.46375 163.845 -307.1875 163.25 C-305.97070811 160.94449957 -304.69666121 158.97943808 -303 157 C-302.34 157 -301.68 157 -301 157 C-300.7525 156.443125 -300.505 155.88625 -300.25 155.3125 C-298.77075182 152.57589087 -297.06532561 150.32349131 -295 148 C-294.34 148 -293.68 148 -293 148 C-292.68482422 147.19369141 -292.68482422 147.19369141 -292.36328125 146.37109375 C-290.48059205 143.09661712 -287.87786636 140.6682841 -285.1875 138.0625 C-284.66607422 137.55009766 -284.14464844 137.03769531 -283.60742188 136.50976562 C-282.5662831 135.48682403 -281.52339881 134.4656559 -280.47875977 133.44628906 C-277.19279248 130.23247526 -273.96274752 126.96292181 -270.73046875 123.6953125 C-264.66358194 117.57315622 -258.60803198 111.54365099 -252 106 C-251.35160156 105.42378906 -250.70320312 104.84757812 -250.03515625 104.25390625 C-249.40480469 103.69574219 -248.77445313 103.13757813 -248.125 102.5625 C-247.29355469 101.82193359 -247.29355469 101.82193359 -246.4453125 101.06640625 C-245 100 -245 100 -243 100 C-242.67 99.01 -242.34 98.02 -242 97 C-240.00390625 95.17578125 -240.00390625 95.17578125 -237.5625 93.3125 C-236.75941406 92.68988281 -235.95632813 92.06726563 -235.12890625 91.42578125 C-233 90 -233 90 -231 90 C-230.67 89.01 -230.34 88.02 -230 87 C-227.4375 85.8125 -227.4375 85.8125 -225 85 C-225 84.34 -225 83.68 -225 83 C-223.68 82.67 -222.36 82.34 -221 82 C-221 81.34 -221 80.68 -221 80 C-219.26451831 78.55473264 -217.46024037 77.1912778 -215.625 75.875 C-214.62726563 75.15054688 -213.62953125 74.42609375 -212.6015625 73.6796875 C-210 72 -210 72 -208 72 C-208 71.34 -208 70.68 -208 70 C-206.3203125 68.7109375 -206.3203125 68.7109375 -204.125 67.375 C-203.40570313 66.92898437 -202.68640625 66.48296875 -201.9453125 66.0234375 C-200 65 -200 65 -198 65 C-198 64.34 -198 63.68 -198 63 C-195.734375 61.30859375 -195.734375 61.30859375 -192.75 59.4375 C-191.77546875 58.81746094 -190.8009375 58.19742188 -189.796875 57.55859375 C-187.43180391 56.24062816 -185.63809243 55.45852559 -183 55 C-183 54.34 -183 53.68 -183 53 C-181.40209961 51.81420898 -181.40209961 51.81420898 -179.15234375 50.49609375 C-178.32637695 50.00689453 -177.50041016 49.51769531 -176.64941406 49.01367188 C-175.75448242 48.49353516 -174.85955078 47.97339844 -173.9375 47.4375 C-172.09756006 46.35302776 -170.25771719 45.26839082 -168.41796875 44.18359375 C-167.50063965 43.64589355 -166.58331055 43.10819336 -165.63818359 42.55419922 C-162.62107901 40.77677114 -159.62682548 38.96406326 -156.63500977 37.14453125 C-151.91279137 34.27731718 -147.2035499 31.46233379 -142.2109375 29.0859375 C-138.97144678 27.49480955 -135.80384482 25.77046024 -132.625 24.0625 C-124.34031446 19.63129874 -116.13767544 15.3664816 -107.3671875 11.96484375 C-105.17725613 11.07224796 -103.1003606 10.08392103 -101 9 C-97.3753827 7.14085236 -93.67991969 5.61017155 -89.88671875 4.12890625 C-87.13476619 3.05270288 -84.39638415 1.94573813 -81.65844727 0.83447266 C-73.84834063 -2.32473896 -65.99086702 -5.32344745 -58 -8 C-56.46859375 -8.55107422 -56.46859375 -8.55107422 -54.90625 -9.11328125 C-36.5203423 -14.20749822 -15.77988959 -10.04952318 0 0 Z " fill="#000000" transform="translate(510,102)"/>
</svg>
